M48
; DRILL file {KiCad 9.0.1} date 2025-06-15T21:57:13+0300
; FORMAT={-:-/ absolute / metric / decimal}
; #@! TF.CreationDate,2025-06-15T21:57:13+03:00
; #@! TF.GenerationSoftware,Kicad,Pcbnew,9.0.1
; #@! TF.FileFunction,Plated,1,2,PTH
FMAT,2
METRIC
; #@! TA.AperFunction,Plated,PTH,ViaDrill
T1C0.300
; #@! TA.AperFunction,Plated,PTH,ComponentDrill
T2C0.800
; #@! TA.AperFunction,Plated,PTH,ComponentDrill
T3C0.900
; #@! TA.AperFunction,Plated,PTH,ComponentDrill
T4C1.000
%
G90
G05
T1
X51.501Y-33.6
X59.811Y-52.019
T2
X34.186Y-35.501
X35.662Y-58.34
X38.202Y-40.56
X38.202Y-43.1
X38.202Y-48.18
X38.229Y-45.659
X43.251Y-31.3
X44.346Y-35.501
X45.791Y-31.3
X48.331Y-31.3
X50.871Y-31.3
X53.411Y-31.3
X55.951Y-31.3
X61.062Y-40.56
X61.062Y-43.1
X63.602Y-40.56
X63.602Y-45.64
X63.602Y-50.72
X63.602Y-53.26
X63.602Y-55.8
T3
X59.601Y-34.8
X62.141Y-34.8
T4
X47.101Y-37.25
X47.101Y-44.8
X47.101Y-52.35
X52.101Y-37.25
X52.101Y-44.8
X52.101Y-52.35
M30
