%TF.GenerationSoftware,KiCad,Pcbnew,9.0.1*%
%TF.CreationDate,2025-06-15T21:57:09+03:00*%
%TF.ProjectId,mp3_player,6d70335f-706c-4617-9965-722e6b696361,rev?*%
%TF.SameCoordinates,Original*%
%TF.FileFunction,Copper,L1,Top*%
%TF.FilePolarity,Positive*%
%FSLAX46Y46*%
G04 Gerber Fmt 4.6, Leading zero omitted, Abs format (unit mm)*
G04 Created by KiCad (PCBNEW 9.0.1) date 2025-06-15 21:57:09*
%MOMM*%
%LPD*%
G01*
G04 APERTURE LIST*
%TA.AperFunction,ComponentPad*%
%ADD10C,1.200000*%
%TD*%
%TA.AperFunction,ComponentPad*%
%ADD11C,1.508000*%
%TD*%
%TA.AperFunction,ComponentPad*%
%ADD12C,1.600000*%
%TD*%
%TA.AperFunction,ComponentPad*%
%ADD13O,1.600000X1.600000*%
%TD*%
%TA.AperFunction,ComponentPad*%
%ADD14R,1.800000X1.800000*%
%TD*%
%TA.AperFunction,ComponentPad*%
%ADD15C,1.800000*%
%TD*%
%TA.AperFunction,ViaPad*%
%ADD16C,0.600000*%
%TD*%
%TA.AperFunction,Conductor*%
%ADD17C,0.200000*%
%TD*%
G04 APERTURE END LIST*
D10*
%TO.P,U3,12,GND*%
%TO.N,GND*%
X61061694Y-43099532D03*
%TO.P,U3,11,GND*%
%TO.N,Net-(D1-A)*%
X35661694Y-58339532D03*
%TO.P,U3,10,Vcc*%
%TO.N,+5V*%
X61061694Y-40559532D03*
%TO.P,U3,9,3.3V*%
%TO.N,Net-(U1-Vcc)*%
X38201694Y-40559532D03*
%TO.P,U3,8,IO32*%
%TO.N,Net-(U3-IO32)*%
X63601694Y-50719532D03*
%TO.P,U3,7,IO27*%
%TO.N,Net-(U3-IO27)*%
X63601694Y-55799532D03*
%TO.P,U3,6,IO25*%
%TO.N,Net-(U3-IO25)*%
X63601694Y-53259532D03*
%TO.P,U3,5,IO4*%
%TO.N,Net-(U1-SS)*%
X63601694Y-45639532D03*
%TO.P,U3,4,IO2*%
%TO.N,Net-(U1-SCK)*%
X63601694Y-40559532D03*
%TO.P,U3,3,IO19*%
%TO.N,Net-(U1-MISO)*%
X38201694Y-48179532D03*
%TO.P,U3,2,IO23*%
%TO.N,Net-(U1-MOSI)*%
X38228604Y-45658652D03*
%TO.P,U3,1,IO5*%
%TO.N,Net-(U3-IO5)*%
X38201694Y-43099532D03*
%TD*%
D11*
%TO.P,SW2,1,1*%
%TO.N,Net-(U3-IO27)*%
X47100847Y-52349766D03*
%TO.P,SW2,2,2*%
%TO.N,Net-(D1-A)*%
X52100847Y-52349766D03*
%TD*%
%TO.P,SW3,1,1*%
%TO.N,Net-(U3-IO32)*%
X47100847Y-37249766D03*
%TO.P,SW3,2,2*%
%TO.N,Net-(D1-A)*%
X52100847Y-37249766D03*
%TD*%
D12*
%TO.P,R1,1*%
%TO.N,Net-(U3-IO5)*%
X44345847Y-35500914D03*
D13*
%TO.P,R1,2*%
%TO.N,Net-(D1-K)*%
X34185847Y-35500914D03*
%TD*%
D11*
%TO.P,SW1,1,1*%
%TO.N,Net-(U3-IO25)*%
X47100847Y-44799766D03*
%TO.P,SW1,2,2*%
%TO.N,Net-(D1-A)*%
X52100847Y-44799766D03*
%TD*%
D14*
%TO.P,D1,1,K*%
%TO.N,Net-(D1-K)*%
X59600847Y-34799766D03*
D15*
%TO.P,D1,2,A*%
%TO.N,Net-(D1-A)*%
X62140847Y-34799766D03*
%TD*%
D10*
%TO.P,U1,1,MISO*%
%TO.N,Net-(U1-MISO)*%
X43250847Y-31299766D03*
%TO.P,U1,2,SCK*%
%TO.N,Net-(U1-SCK)*%
X45790847Y-31299766D03*
%TO.P,U1,3,SS*%
%TO.N,Net-(U1-SS)*%
X48330847Y-31299766D03*
%TO.P,U1,4,MOSI*%
%TO.N,Net-(U1-MOSI)*%
X50870847Y-31299766D03*
%TO.P,U1,5,GND*%
%TO.N,Net-(D1-A)*%
X53410847Y-31299766D03*
%TO.P,U1,6,Vcc*%
%TO.N,Net-(U1-Vcc)*%
X55950847Y-31299766D03*
%TD*%
D16*
%TO.N,Net-(U1-Vcc)*%
X51500847Y-33599532D03*
%TO.N,Net-(U1-SCK)*%
X59811271Y-52019109D03*
%TD*%
D17*
%TO.N,Net-(U1-MISO)*%
X34241271Y-40309342D02*
X43250847Y-31299766D01*
X34241271Y-44219109D02*
X34241271Y-40309342D01*
X38201694Y-48179532D02*
X34241271Y-44219109D01*
%TO.N,Net-(U1-MOSI)*%
X48851504Y-33319109D02*
X50870847Y-31299766D01*
%TO.N,Net-(U1-Vcc)*%
X51071270Y-34029109D02*
X47613711Y-34029109D01*
X51500847Y-33599532D02*
X51071270Y-34029109D01*
%TO.N,Net-(U1-MOSI)*%
X35581271Y-40719109D02*
X42981271Y-33319109D01*
%TO.N,Net-(U1-SCK)*%
X65411694Y-40559532D02*
X63601694Y-40559532D01*
%TO.N,Net-(U1-Vcc)*%
X41083288Y-40559532D02*
X38201694Y-40559532D01*
%TO.N,Net-(U1-MOSI)*%
X38228604Y-45658652D02*
X37850814Y-45658652D01*
X42981271Y-33319109D02*
X48851504Y-33319109D01*
%TO.N,Net-(U1-SCK)*%
X65441271Y-40589109D02*
X65411694Y-40559532D01*
X65441271Y-46389109D02*
X65441271Y-40589109D01*
%TO.N,Net-(U1-MOSI)*%
X37850814Y-45658652D02*
X35581271Y-43389109D01*
X35581271Y-43389109D02*
X35581271Y-40719109D01*
%TO.N,Net-(U1-Vcc)*%
X47613711Y-34029109D02*
X41083288Y-40559532D01*
%TO.N,Net-(D1-A)*%
X60939847Y-33598766D02*
X55709847Y-33598766D01*
X46111081Y-58339532D02*
X52100847Y-52349766D01*
X52100847Y-37249766D02*
X52100847Y-44799766D01*
%TO.N,Net-(U1-SCK)*%
X59811271Y-52019109D02*
X65441271Y-46389109D01*
%TO.N,Net-(D1-A)*%
X52100847Y-32609766D02*
X53410847Y-31299766D01*
X55709847Y-33598766D02*
X53410847Y-31299766D01*
X52100847Y-44799766D02*
X52100847Y-52349766D01*
X52100847Y-37249766D02*
X52100847Y-32609766D01*
X35661694Y-58339532D02*
X46111081Y-58339532D01*
X62140847Y-34799766D02*
X60939847Y-33598766D01*
%TD*%
%TA.AperFunction,Conductor*%
%TO.N,GND*%
G36*
X61603549Y-29800383D02*
G01*
X61987621Y-29817152D01*
X61998353Y-29818092D01*
X62376823Y-29867918D01*
X62387442Y-29869790D01*
X62760133Y-29952413D01*
X62770559Y-29955207D01*
X63134612Y-30069992D01*
X63144759Y-30073685D01*
X63497427Y-30219765D01*
X63507218Y-30224331D01*
X63845791Y-30400581D01*
X63855158Y-30405988D01*
X63856747Y-30407001D01*
X64177094Y-30611083D01*
X64185951Y-30617285D01*
X64488779Y-30849653D01*
X64497054Y-30856596D01*
X64778498Y-31114491D01*
X64786141Y-31122135D01*
X65044007Y-31403547D01*
X65050961Y-31411834D01*
X65283333Y-31714667D01*
X65289537Y-31723528D01*
X65313423Y-31761021D01*
X65476306Y-32016696D01*
X65494622Y-32045445D01*
X65500027Y-32054807D01*
X65596952Y-32240997D01*
X65676282Y-32393388D01*
X65680854Y-32403192D01*
X65826928Y-32755845D01*
X65830628Y-32766011D01*
X65945406Y-33130041D01*
X65948206Y-33140489D01*
X66030825Y-33513156D01*
X66032703Y-33523809D01*
X66082525Y-33902238D01*
X66083468Y-33913015D01*
X66100229Y-34296902D01*
X66100347Y-34302311D01*
X66100347Y-40099586D01*
X66094108Y-40120831D01*
X66092529Y-40142919D01*
X66084456Y-40153702D01*
X66080662Y-40166625D01*
X66063930Y-40181123D01*
X66050658Y-40198853D01*
X66038035Y-40203560D01*
X66027858Y-40212380D01*
X66005942Y-40215531D01*
X65985194Y-40223270D01*
X65972032Y-40220407D01*
X65958700Y-40222324D01*
X65938558Y-40213125D01*
X65916921Y-40208419D01*
X65899192Y-40195147D01*
X65895144Y-40193299D01*
X65888666Y-40187268D01*
X65855100Y-40153702D01*
X65809987Y-40108589D01*
X65780410Y-40079012D01*
X65693598Y-40028892D01*
X65693598Y-40028891D01*
X65693594Y-40028890D01*
X65643479Y-39999955D01*
X65490751Y-39959031D01*
X65332637Y-39959031D01*
X65325041Y-39959031D01*
X65325025Y-39959032D01*
X64588879Y-39959032D01*
X64521840Y-39939347D01*
X64488561Y-39907918D01*
X64441108Y-39842604D01*
X64318622Y-39720118D01*
X64178482Y-39618300D01*
X64024139Y-39539659D01*
X63859395Y-39486130D01*
X63859393Y-39486129D01*
X63859392Y-39486129D01*
X63727965Y-39465313D01*
X63688305Y-39459032D01*
X63515083Y-39459032D01*
X63475422Y-39465313D01*
X63343996Y-39486129D01*
X63179246Y-39539660D01*
X63024905Y-39618300D01*
X62944950Y-39676391D01*
X62884766Y-39720118D01*
X62884764Y-39720120D01*
X62884763Y-39720120D01*
X62762282Y-39842601D01*
X62762282Y-39842602D01*
X62762280Y-39842604D01*
X62718553Y-39902788D01*
X62660462Y-39982743D01*
X62581822Y-40137084D01*
X62528291Y-40301834D01*
X62501194Y-40472921D01*
X62501194Y-40646142D01*
X62525272Y-40798169D01*
X62528292Y-40817233D01*
X62581821Y-40981977D01*
X62660462Y-41136320D01*
X62762280Y-41276460D01*
X62884766Y-41398946D01*
X63024906Y-41500764D01*
X63179249Y-41579405D01*
X63343993Y-41632934D01*
X63515083Y-41660032D01*
X63515084Y-41660032D01*
X63688304Y-41660032D01*
X63688305Y-41660032D01*
X63859395Y-41632934D01*
X64024139Y-41579405D01*
X64178482Y-41500764D01*
X64318622Y-41398946D01*
X64441108Y-41276460D01*
X64488562Y-41211145D01*
X64492893Y-41207805D01*
X64495166Y-41202829D01*
X64520265Y-41186698D01*
X64543891Y-41168481D01*
X64550562Y-41167228D01*
X64553944Y-41165055D01*
X64588879Y-41160032D01*
X64716771Y-41160032D01*
X64783810Y-41179717D01*
X64829565Y-41232521D01*
X64840771Y-41284032D01*
X64840771Y-45130800D01*
X64821086Y-45197839D01*
X64768282Y-45243594D01*
X64699124Y-45253538D01*
X64635568Y-45224513D01*
X64606286Y-45187095D01*
X64572681Y-45121143D01*
X64542926Y-45062744D01*
X64441108Y-44922604D01*
X64318622Y-44800118D01*
X64178482Y-44698300D01*
X64024139Y-44619659D01*
X63859395Y-44566130D01*
X63859393Y-44566129D01*
X63859392Y-44566129D01*
X63727965Y-44545313D01*
X63688305Y-44539032D01*
X63515083Y-44539032D01*
X63475422Y-44545313D01*
X63343996Y-44566129D01*
X63179246Y-44619660D01*
X63024905Y-44698300D01*
X62944950Y-44756391D01*
X62884766Y-44800118D01*
X62884764Y-44800120D01*
X62884763Y-44800120D01*
X62762282Y-44922601D01*
X62762282Y-44922602D01*
X62762280Y-44922604D01*
X62718553Y-44982788D01*
X62660462Y-45062743D01*
X62581822Y-45217084D01*
X62581821Y-45217086D01*
X62581821Y-45217087D01*
X62573208Y-45243594D01*
X62528291Y-45381834D01*
X62501194Y-45552921D01*
X62501194Y-45726142D01*
X62525088Y-45877007D01*
X62528292Y-45897233D01*
X62581821Y-46061977D01*
X62660462Y-46216320D01*
X62762280Y-46356460D01*
X62884766Y-46478946D01*
X63024906Y-46580764D01*
X63179249Y-46659405D01*
X63343993Y-46712934D01*
X63515083Y-46740032D01*
X63515084Y-46740032D01*
X63688304Y-46740032D01*
X63688305Y-46740032D01*
X63859395Y-46712934D01*
X63973764Y-46675772D01*
X64043600Y-46673778D01*
X64103433Y-46709857D01*
X64134262Y-46772558D01*
X64126298Y-46841972D01*
X64099759Y-46881385D01*
X59796610Y-51184534D01*
X59735287Y-51218019D01*
X59733121Y-51218470D01*
X59577779Y-51249370D01*
X59577769Y-51249373D01*
X59432098Y-51309711D01*
X59432085Y-51309718D01*
X59300982Y-51397319D01*
X59300978Y-51397322D01*
X59189484Y-51508816D01*
X59189481Y-51508820D01*
X59101880Y-51639923D01*
X59101873Y-51639936D01*
X59041535Y-51785607D01*
X59041532Y-51785619D01*
X59010771Y-51940262D01*
X59010771Y-52097955D01*
X59041532Y-52252598D01*
X59041535Y-52252610D01*
X59101873Y-52398281D01*
X59101880Y-52398294D01*
X59189481Y-52529397D01*
X59189484Y-52529401D01*
X59300978Y-52640895D01*
X59300982Y-52640898D01*
X59432085Y-52728499D01*
X59432098Y-52728506D01*
X59502428Y-52757637D01*
X59577774Y-52788846D01*
X59732424Y-52819608D01*
X59732427Y-52819609D01*
X59732429Y-52819609D01*
X59890115Y-52819609D01*
X59890116Y-52819608D01*
X60044768Y-52788846D01*
X60190450Y-52728503D01*
X60321560Y-52640898D01*
X60433060Y-52529398D01*
X60520665Y-52398288D01*
X60581008Y-52252606D01*
X60600384Y-52155194D01*
X60611909Y-52097259D01*
X60644294Y-52035348D01*
X60645789Y-52033825D01*
X62316873Y-50362741D01*
X62378195Y-50329257D01*
X62447887Y-50334241D01*
X62503820Y-50376113D01*
X62528237Y-50441577D01*
X62527026Y-50469820D01*
X62501194Y-50632920D01*
X62501194Y-50632921D01*
X62501194Y-50806143D01*
X62528292Y-50977233D01*
X62581821Y-51141977D01*
X62660462Y-51296320D01*
X62762280Y-51436460D01*
X62884766Y-51558946D01*
X63024906Y-51660764D01*
X63179249Y-51739405D01*
X63343993Y-51792934D01*
X63515083Y-51820032D01*
X63515084Y-51820032D01*
X63688304Y-51820032D01*
X63688305Y-51820032D01*
X63859395Y-51792934D01*
X64024139Y-51739405D01*
X64178482Y-51660764D01*
X64318622Y-51558946D01*
X64441108Y-51436460D01*
X64542926Y-51296320D01*
X64621567Y-51141977D01*
X64675096Y-50977233D01*
X64702194Y-50806143D01*
X64702194Y-50632921D01*
X64675096Y-50461831D01*
X64621567Y-50297087D01*
X64542926Y-50142744D01*
X64441108Y-50002604D01*
X64318622Y-49880118D01*
X64178482Y-49778300D01*
X64024139Y-49699659D01*
X63859395Y-49646130D01*
X63859393Y-49646129D01*
X63859392Y-49646129D01*
X63727965Y-49625313D01*
X63688305Y-49619032D01*
X63515083Y-49619032D01*
X63351982Y-49644864D01*
X63282689Y-49635909D01*
X63229237Y-49590913D01*
X63208598Y-49524161D01*
X63227323Y-49456848D01*
X63244904Y-49434710D01*
X64413472Y-48266142D01*
X65809984Y-46869630D01*
X65809987Y-46869629D01*
X65888669Y-46790946D01*
X65949991Y-46757464D01*
X65989821Y-46760313D01*
X66019681Y-46762449D01*
X66019682Y-46762449D01*
X66019683Y-46762450D01*
X66075615Y-46804322D01*
X66086076Y-46832370D01*
X66100031Y-46869785D01*
X66100347Y-46878631D01*
X66100347Y-55297059D01*
X66100229Y-55302468D01*
X66083461Y-55686518D01*
X66082518Y-55697294D01*
X66032697Y-56075725D01*
X66030819Y-56086379D01*
X65948202Y-56459040D01*
X65945402Y-56469488D01*
X65830623Y-56833522D01*
X65826923Y-56843688D01*
X65680850Y-57196339D01*
X65676278Y-57206143D01*
X65500031Y-57544709D01*
X65494623Y-57554077D01*
X65289533Y-57876006D01*
X65283328Y-57884868D01*
X65050959Y-58187696D01*
X65044006Y-58195982D01*
X64786127Y-58477409D01*
X64778477Y-58485058D01*
X64497065Y-58742924D01*
X64488778Y-58749878D01*
X64185945Y-58982249D01*
X64177084Y-58988453D01*
X63855167Y-59193538D01*
X63845799Y-59198947D01*
X63507224Y-59375198D01*
X63497420Y-59379770D01*
X63144768Y-59525843D01*
X63134602Y-59529543D01*
X62770569Y-59644322D01*
X62760120Y-59647122D01*
X62387458Y-59729739D01*
X62376805Y-59731617D01*
X61998375Y-59781438D01*
X61987599Y-59782381D01*
X61603573Y-59799148D01*
X61598164Y-59799266D01*
X37603553Y-59799266D01*
X37598144Y-59799148D01*
X37214096Y-59782380D01*
X37203320Y-59781437D01*
X36824890Y-59731615D01*
X36814237Y-59729737D01*
X36441583Y-59647122D01*
X36441575Y-59647120D01*
X36431132Y-59644322D01*
X36160421Y-59558966D01*
X36102405Y-59520034D01*
X36074646Y-59455915D01*
X36085960Y-59386967D01*
X36132753Y-59335081D01*
X36141416Y-59330221D01*
X36238480Y-59280765D01*
X36238479Y-59280765D01*
X36238482Y-59280764D01*
X36378622Y-59178946D01*
X36501108Y-59056460D01*
X36548562Y-58991145D01*
X36603891Y-58948481D01*
X36648879Y-58940032D01*
X46024412Y-58940032D01*
X46024428Y-58940033D01*
X46032024Y-58940033D01*
X46190135Y-58940033D01*
X46190138Y-58940033D01*
X46342866Y-58899109D01*
X46392985Y-58870171D01*
X46479797Y-58820052D01*
X46591601Y-58708248D01*
X46591601Y-58708246D01*
X46601809Y-58698039D01*
X46601811Y-58698036D01*
X49586925Y-55712921D01*
X62501194Y-55712921D01*
X62501194Y-55886143D01*
X62528292Y-56057233D01*
X62581821Y-56221977D01*
X62660462Y-56376320D01*
X62762280Y-56516460D01*
X62884766Y-56638946D01*
X63024906Y-56740764D01*
X63179249Y-56819405D01*
X63343993Y-56872934D01*
X63515083Y-56900032D01*
X63515084Y-56900032D01*
X63688304Y-56900032D01*
X63688305Y-56900032D01*
X63859395Y-56872934D01*
X64024139Y-56819405D01*
X64178482Y-56740764D01*
X64318622Y-56638946D01*
X64441108Y-56516460D01*
X64542926Y-56376320D01*
X64621567Y-56221977D01*
X64675096Y-56057233D01*
X64702194Y-55886143D01*
X64702194Y-55712921D01*
X64675096Y-55541831D01*
X64621567Y-55377087D01*
X64542926Y-55222744D01*
X64441108Y-55082604D01*
X64318622Y-54960118D01*
X64178482Y-54858300D01*
X64024139Y-54779659D01*
X63859395Y-54726130D01*
X63859393Y-54726129D01*
X63859392Y-54726129D01*
X63727965Y-54705313D01*
X63688305Y-54699032D01*
X63515083Y-54699032D01*
X63475422Y-54705313D01*
X63343996Y-54726129D01*
X63179246Y-54779660D01*
X63024905Y-54858300D01*
X62944950Y-54916391D01*
X62884766Y-54960118D01*
X62884764Y-54960120D01*
X62884763Y-54960120D01*
X62762282Y-55082601D01*
X62762282Y-55082602D01*
X62762280Y-55082604D01*
X62718553Y-55142788D01*
X62660462Y-55222743D01*
X62581822Y-55377084D01*
X62528291Y-55541834D01*
X62505376Y-55686516D01*
X62501194Y-55712921D01*
X49586925Y-55712921D01*
X51692975Y-53606871D01*
X51754296Y-53573388D01*
X51802068Y-53573899D01*
X51802272Y-53572614D01*
X52002111Y-53604266D01*
X52002116Y-53604266D01*
X52199583Y-53604266D01*
X52394610Y-53573376D01*
X52396955Y-53572614D01*
X52582408Y-53512357D01*
X52758348Y-53422710D01*
X52863736Y-53346142D01*
X52918093Y-53306650D01*
X52918095Y-53306647D01*
X52918099Y-53306645D01*
X53051823Y-53172921D01*
X62501194Y-53172921D01*
X62501194Y-53346142D01*
X62527519Y-53512357D01*
X62528292Y-53517233D01*
X62581821Y-53681977D01*
X62660462Y-53836320D01*
X62762280Y-53976460D01*
X62884766Y-54098946D01*
X63024906Y-54200764D01*
X63179249Y-54279405D01*
X63343993Y-54332934D01*
X63515083Y-54360032D01*
X63515084Y-54360032D01*
X63688304Y-54360032D01*
X63688305Y-54360032D01*
X63859395Y-54332934D01*
X64024139Y-54279405D01*
X64178482Y-54200764D01*
X64318622Y-54098946D01*
X64441108Y-53976460D01*
X64542926Y-53836320D01*
X64621567Y-53681977D01*
X64675096Y-53517233D01*
X64702194Y-53346143D01*
X64702194Y-53172921D01*
X64675096Y-53001831D01*
X64621567Y-52837087D01*
X64542926Y-52682744D01*
X64441108Y-52542604D01*
X64318622Y-52420118D01*
X64178482Y-52318300D01*
X64024139Y-52239659D01*
X63859395Y-52186130D01*
X63859393Y-52186129D01*
X63859392Y-52186129D01*
X63727965Y-52165313D01*
X63688305Y-52159032D01*
X63515083Y-52159032D01*
X63475422Y-52165313D01*
X63343996Y-52186129D01*
X63179246Y-52239660D01*
X63024905Y-52318300D01*
X62944950Y-52376391D01*
X62884766Y-52420118D01*
X62884764Y-52420120D01*
X62884763Y-52420120D01*
X62762282Y-52542601D01*
X62762282Y-52542602D01*
X62762280Y-52542604D01*
X62718553Y-52602788D01*
X62660462Y-52682743D01*
X62581822Y-52837084D01*
X62528291Y-53001834D01*
X62501194Y-53172921D01*
X53051823Y-53172921D01*
X53057726Y-53167018D01*
X53173791Y-53007267D01*
X53263438Y-52831327D01*
X53324457Y-52643529D01*
X53340442Y-52542604D01*
X53355347Y-52448502D01*
X53355347Y-52251029D01*
X53324457Y-52056002D01*
X53286852Y-51940267D01*
X53263438Y-51868205D01*
X53173791Y-51692265D01*
X53166333Y-51682000D01*
X53057731Y-51532519D01*
X52918093Y-51392881D01*
X52754407Y-51273958D01*
X52755446Y-51272527D01*
X52713680Y-51226359D01*
X52701347Y-51172448D01*
X52701347Y-45977083D01*
X52721032Y-45910044D01*
X52755173Y-45876629D01*
X52754406Y-45875573D01*
X52758343Y-45872712D01*
X52758348Y-45872710D01*
X52918099Y-45756645D01*
X53057726Y-45617018D01*
X53057728Y-45617014D01*
X53057731Y-45617012D01*
X53108626Y-45546958D01*
X53173791Y-45457267D01*
X53263438Y-45281327D01*
X53324457Y-45093529D01*
X53348501Y-44941722D01*
X53355347Y-44898502D01*
X53355347Y-44701029D01*
X53324457Y-44506002D01*
X53304117Y-44443403D01*
X53263438Y-44318205D01*
X53173791Y-44142265D01*
X53115074Y-44061447D01*
X53115073Y-44061444D01*
X53057731Y-43982520D01*
X53057727Y-43982515D01*
X52918093Y-43842881D01*
X52754407Y-43723958D01*
X52755446Y-43722527D01*
X52713680Y-43676359D01*
X52701347Y-43622448D01*
X52701347Y-43012960D01*
X59961694Y-43012960D01*
X59961694Y-43186103D01*
X59988779Y-43357116D01*
X60042286Y-43521791D01*
X60120890Y-43676057D01*
X60125403Y-43682268D01*
X60125403Y-43682269D01*
X60661694Y-43145978D01*
X60661694Y-43152193D01*
X60688953Y-43253926D01*
X60741614Y-43345138D01*
X60816088Y-43419612D01*
X60907300Y-43472273D01*
X61009033Y-43499532D01*
X61015247Y-43499532D01*
X60478955Y-44035821D01*
X60478956Y-44035822D01*
X60485165Y-44040333D01*
X60639436Y-44118940D01*
X60804109Y-44172446D01*
X60975123Y-44199532D01*
X61148265Y-44199532D01*
X61319278Y-44172446D01*
X61483951Y-44118940D01*
X61638219Y-44040335D01*
X61644430Y-44035821D01*
X61644431Y-44035821D01*
X61108142Y-43499532D01*
X61114355Y-43499532D01*
X61216088Y-43472273D01*
X61307300Y-43419612D01*
X61381774Y-43345138D01*
X61434435Y-43253926D01*
X61461694Y-43152193D01*
X61461694Y-43145980D01*
X61997983Y-43682269D01*
X61997983Y-43682268D01*
X62002497Y-43676057D01*
X62081102Y-43521789D01*
X62134608Y-43357116D01*
X62161694Y-43186103D01*
X62161694Y-43012960D01*
X62134608Y-42841947D01*
X62081102Y-42677274D01*
X62002495Y-42523003D01*
X61997984Y-42516794D01*
X61997983Y-42516793D01*
X61461694Y-43053083D01*
X61461694Y-43046871D01*
X61434435Y-42945138D01*
X61381774Y-42853926D01*
X61307300Y-42779452D01*
X61216088Y-42726791D01*
X61114355Y-42699532D01*
X61108141Y-42699532D01*
X61644431Y-42163241D01*
X61638219Y-42158728D01*
X61483953Y-42080124D01*
X61319278Y-42026617D01*
X61148265Y-41999532D01*
X60975123Y-41999532D01*
X60804109Y-42026617D01*
X60639434Y-42080124D01*
X60485174Y-42158725D01*
X60485157Y-42158735D01*
X60478955Y-42163240D01*
X60478955Y-42163241D01*
X61015248Y-42699532D01*
X61009033Y-42699532D01*
X60907300Y-42726791D01*
X60816088Y-42779452D01*
X60741614Y-42853926D01*
X60688953Y-42945138D01*
X60661694Y-43046871D01*
X60661694Y-43053084D01*
X60125403Y-42516793D01*
X60125402Y-42516793D01*
X60120897Y-42522995D01*
X60120887Y-42523012D01*
X60042286Y-42677272D01*
X59988779Y-42841947D01*
X59961694Y-43012960D01*
X52701347Y-43012960D01*
X52701347Y-40472921D01*
X59961194Y-40472921D01*
X59961194Y-40646142D01*
X59985272Y-40798169D01*
X59988292Y-40817233D01*
X60041821Y-40981977D01*
X60120462Y-41136320D01*
X60222280Y-41276460D01*
X60344766Y-41398946D01*
X60484906Y-41500764D01*
X60639249Y-41579405D01*
X60803993Y-41632934D01*
X60975083Y-41660032D01*
X60975084Y-41660032D01*
X61148304Y-41660032D01*
X61148305Y-41660032D01*
X61319395Y-41632934D01*
X61484139Y-41579405D01*
X61638482Y-41500764D01*
X61778622Y-41398946D01*
X61901108Y-41276460D01*
X62002926Y-41136320D01*
X62081567Y-40981977D01*
X62135096Y-40817233D01*
X62162194Y-40646143D01*
X62162194Y-40472921D01*
X62135096Y-40301831D01*
X62081567Y-40137087D01*
X62002926Y-39982744D01*
X61901108Y-39842604D01*
X61778622Y-39720118D01*
X61638482Y-39618300D01*
X61484139Y-39539659D01*
X61319395Y-39486130D01*
X61319393Y-39486129D01*
X61319392Y-39486129D01*
X61187965Y-39465313D01*
X61148305Y-39459032D01*
X60975083Y-39459032D01*
X60935422Y-39465313D01*
X60803996Y-39486129D01*
X60639246Y-39539660D01*
X60484905Y-39618300D01*
X60404950Y-39676391D01*
X60344766Y-39720118D01*
X60344764Y-39720120D01*
X60344763Y-39720120D01*
X60222282Y-39842601D01*
X60222282Y-39842602D01*
X60222280Y-39842604D01*
X60178553Y-39902788D01*
X60120462Y-39982743D01*
X60041822Y-40137084D01*
X59988291Y-40301834D01*
X59961194Y-40472921D01*
X52701347Y-40472921D01*
X52701347Y-38427083D01*
X52721032Y-38360044D01*
X52755173Y-38326629D01*
X52754406Y-38325573D01*
X52758343Y-38322712D01*
X52758348Y-38322710D01*
X52918099Y-38206645D01*
X53057726Y-38067018D01*
X53057728Y-38067014D01*
X53057731Y-38067012D01*
X53108626Y-37996958D01*
X53173791Y-37907267D01*
X53263438Y-37731327D01*
X53324457Y-37543529D01*
X53355347Y-37348502D01*
X53355347Y-37151029D01*
X53324457Y-36956002D01*
X53283254Y-36829193D01*
X53263438Y-36768205D01*
X53173791Y-36592265D01*
X53166333Y-36582000D01*
X53057731Y-36432519D01*
X52918093Y-36292881D01*
X52754407Y-36173958D01*
X52755446Y-36172527D01*
X52713680Y-36126359D01*
X52701347Y-36072448D01*
X52701347Y-32909863D01*
X52721032Y-32842824D01*
X52737666Y-32822182D01*
X52913728Y-32646120D01*
X53137421Y-32422426D01*
X53198742Y-32388943D01*
X53244494Y-32387636D01*
X53324236Y-32400266D01*
X53324238Y-32400266D01*
X53497456Y-32400266D01*
X53497458Y-32400266D01*
X53577197Y-32387636D01*
X53646488Y-32396590D01*
X53684274Y-32422428D01*
X55224986Y-33963140D01*
X55224996Y-33963151D01*
X55229326Y-33967481D01*
X55229327Y-33967482D01*
X55341131Y-34079286D01*
X55341133Y-34079287D01*
X55341137Y-34079290D01*
X55394017Y-34109820D01*
X55394022Y-34109822D01*
X55478056Y-34158340D01*
X55478057Y-34158341D01*
X55478059Y-34158341D01*
X55478062Y-34158343D01*
X55630790Y-34199267D01*
X55630793Y-34199267D01*
X55796500Y-34199267D01*
X55796516Y-34199266D01*
X58076347Y-34199266D01*
X58143386Y-34218951D01*
X58189141Y-34271755D01*
X58200347Y-34323266D01*
X58200347Y-35747636D01*
X58200348Y-35747642D01*
X58206755Y-35807249D01*
X58257049Y-35942094D01*
X58257053Y-35942101D01*
X58343299Y-36057310D01*
X58343302Y-36057313D01*
X58458511Y-36143559D01*
X58458518Y-36143563D01*
X58593364Y-36193857D01*
X58593363Y-36193857D01*
X58600291Y-36194601D01*
X58652974Y-36200266D01*
X60548719Y-36200265D01*
X60608330Y-36193857D01*
X60743178Y-36143562D01*
X60858393Y-36057312D01*
X60944643Y-35942097D01*
X60972276Y-35868009D01*
X60974448Y-35862186D01*
X61016318Y-35806252D01*
X61081783Y-35781834D01*
X61150056Y-35796685D01*
X61178311Y-35817837D01*
X61228483Y-35868009D01*
X61228488Y-35868013D01*
X61319278Y-35933975D01*
X61406825Y-35997581D01*
X61535222Y-36063003D01*
X61603240Y-36097661D01*
X61603243Y-36097662D01*
X61691566Y-36126359D01*
X61812896Y-36165781D01*
X62030625Y-36200266D01*
X62030626Y-36200266D01*
X62251068Y-36200266D01*
X62251069Y-36200266D01*
X62468798Y-36165781D01*
X62678453Y-36097661D01*
X62874869Y-35997581D01*
X63053212Y-35868008D01*
X63209089Y-35712131D01*
X63338662Y-35533788D01*
X63438742Y-35337372D01*
X63506862Y-35127717D01*
X63541347Y-34909988D01*
X63541347Y-34689544D01*
X63506862Y-34471815D01*
X63450961Y-34299766D01*
X63438743Y-34262162D01*
X63438742Y-34262159D01*
X63385843Y-34158341D01*
X63338662Y-34065744D01*
X63322107Y-34042958D01*
X63209094Y-33887407D01*
X63209090Y-33887402D01*
X63053210Y-33731522D01*
X63053205Y-33731518D01*
X62874872Y-33601953D01*
X62874871Y-33601952D01*
X62874869Y-33601951D01*
X62811943Y-33569888D01*
X62678453Y-33501870D01*
X62678450Y-33501869D01*
X62468799Y-33433751D01*
X62312047Y-33408924D01*
X62251069Y-33399266D01*
X62030625Y-33399266D01*
X61987079Y-33406163D01*
X61812892Y-33433751D01*
X61742641Y-33456577D01*
X61672800Y-33458572D01*
X61616643Y-33426327D01*
X61427437Y-33237121D01*
X61427435Y-33237118D01*
X61308564Y-33118247D01*
X61308563Y-33118246D01*
X61221751Y-33068126D01*
X61221751Y-33068125D01*
X61221747Y-33068124D01*
X61171632Y-33039189D01*
X61018904Y-32998265D01*
X60860790Y-32998265D01*
X60853194Y-32998265D01*
X60853178Y-32998266D01*
X56009944Y-32998266D01*
X55942905Y-32978581D01*
X55922263Y-32961947D01*
X55525594Y-32565278D01*
X55492109Y-32503955D01*
X55497093Y-32434263D01*
X55538965Y-32378330D01*
X55604429Y-32353913D01*
X55651589Y-32359665D01*
X55693146Y-32373168D01*
X55864236Y-32400266D01*
X55864237Y-32400266D01*
X56037457Y-32400266D01*
X56037458Y-32400266D01*
X56208548Y-32373168D01*
X56373292Y-32319639D01*
X56527635Y-32240998D01*
X56667775Y-32139180D01*
X56790261Y-32016694D01*
X56892079Y-31876554D01*
X56970720Y-31722211D01*
X57024249Y-31557467D01*
X57051347Y-31386377D01*
X57051347Y-31213155D01*
X57024249Y-31042065D01*
X56970720Y-30877321D01*
X56892079Y-30722978D01*
X56790261Y-30582838D01*
X56667775Y-30460352D01*
X56527635Y-30358534D01*
X56373292Y-30279893D01*
X56208548Y-30226364D01*
X56208546Y-30226363D01*
X56208545Y-30226363D01*
X56077118Y-30205547D01*
X56037458Y-30199266D01*
X55864236Y-30199266D01*
X55824575Y-30205547D01*
X55693149Y-30226363D01*
X55528399Y-30279894D01*
X55374058Y-30358534D01*
X55308743Y-30405989D01*
X55233919Y-30460352D01*
X55233917Y-30460354D01*
X55233916Y-30460354D01*
X55111435Y-30582835D01*
X55111435Y-30582836D01*
X55111433Y-30582838D01*
X55086406Y-30617285D01*
X55009615Y-30722977D01*
X54930975Y-30877318D01*
X54877444Y-31042068D01*
X54864763Y-31122135D01*
X54850347Y-31213155D01*
X54850347Y-31386377D01*
X54856628Y-31426037D01*
X54877444Y-31557464D01*
X54877445Y-31557468D01*
X54890946Y-31599020D01*
X54891127Y-31605387D01*
X54894181Y-31610979D01*
X54892113Y-31639889D01*
X54892941Y-31668861D01*
X54889651Y-31674316D01*
X54889197Y-31680671D01*
X54871827Y-31703872D01*
X54856860Y-31728694D01*
X54851141Y-31731505D01*
X54847325Y-31736604D01*
X54820172Y-31746731D01*
X54794159Y-31759521D01*
X54787829Y-31758794D01*
X54781861Y-31761021D01*
X54753540Y-31754860D01*
X54724745Y-31751556D01*
X54718251Y-31747183D01*
X54713588Y-31746169D01*
X54685334Y-31725018D01*
X54533509Y-31573193D01*
X54500024Y-31511870D01*
X54498717Y-31466118D01*
X54511347Y-31386377D01*
X54511347Y-31213155D01*
X54484249Y-31042065D01*
X54430720Y-30877321D01*
X54352079Y-30722978D01*
X54250261Y-30582838D01*
X54127775Y-30460352D01*
X53987635Y-30358534D01*
X53833292Y-30279893D01*
X53668548Y-30226364D01*
X53668546Y-30226363D01*
X53668545Y-30226363D01*
X53537118Y-30205547D01*
X53497458Y-30199266D01*
X53324236Y-30199266D01*
X53284575Y-30205547D01*
X53153149Y-30226363D01*
X52988399Y-30279894D01*
X52834058Y-30358534D01*
X52768743Y-30405989D01*
X52693919Y-30460352D01*
X52693917Y-30460354D01*
X52693916Y-30460354D01*
X52571435Y-30582835D01*
X52571435Y-30582836D01*
X52571433Y-30582838D01*
X52546406Y-30617285D01*
X52469615Y-30722977D01*
X52390975Y-30877318D01*
X52337444Y-31042068D01*
X52310347Y-31213155D01*
X52310347Y-31386381D01*
X52322975Y-31466113D01*
X52322273Y-31471538D01*
X52324186Y-31476665D01*
X52317843Y-31505820D01*
X52314020Y-31535407D01*
X52310188Y-31541010D01*
X52309334Y-31544938D01*
X52288183Y-31573192D01*
X52136359Y-31725016D01*
X52075037Y-31758501D01*
X52005346Y-31753517D01*
X51949412Y-31711646D01*
X51924995Y-31646181D01*
X51930747Y-31599019D01*
X51944249Y-31557467D01*
X51971347Y-31386377D01*
X51971347Y-31213155D01*
X51944249Y-31042065D01*
X51890720Y-30877321D01*
X51812079Y-30722978D01*
X51710261Y-30582838D01*
X51587775Y-30460352D01*
X51447635Y-30358534D01*
X51293292Y-30279893D01*
X51128548Y-30226364D01*
X51128546Y-30226363D01*
X51128545Y-30226363D01*
X50997118Y-30205547D01*
X50957458Y-30199266D01*
X50784236Y-30199266D01*
X50744575Y-30205547D01*
X50613149Y-30226363D01*
X50448399Y-30279894D01*
X50294058Y-30358534D01*
X50228743Y-30405989D01*
X50153919Y-30460352D01*
X50153917Y-30460354D01*
X50153916Y-30460354D01*
X50031435Y-30582835D01*
X50031435Y-30582836D01*
X50031433Y-30582838D01*
X50006406Y-30617285D01*
X49929615Y-30722977D01*
X49850975Y-30877318D01*
X49797444Y-31042068D01*
X49770347Y-31213155D01*
X49770347Y-31386382D01*
X49782975Y-31466115D01*
X49782273Y-31471539D01*
X49784186Y-31476666D01*
X49777843Y-31505821D01*
X49774020Y-31535408D01*
X49770188Y-31541011D01*
X49769334Y-31544939D01*
X49748183Y-31573193D01*
X49596359Y-31725017D01*
X49535036Y-31758502D01*
X49465344Y-31753518D01*
X49409411Y-31711646D01*
X49384994Y-31646182D01*
X49390747Y-31599019D01*
X49404249Y-31557467D01*
X49431347Y-31386377D01*
X49431347Y-31213155D01*
X49404249Y-31042065D01*
X49350720Y-30877321D01*
X49272079Y-30722978D01*
X49170261Y-30582838D01*
X49047775Y-30460352D01*
X48907635Y-30358534D01*
X48753292Y-30279893D01*
X48588548Y-30226364D01*
X48588546Y-30226363D01*
X48588545Y-30226363D01*
X48457118Y-30205547D01*
X48417458Y-30199266D01*
X48244236Y-30199266D01*
X48204575Y-30205547D01*
X48073149Y-30226363D01*
X47908399Y-30279894D01*
X47754058Y-30358534D01*
X47688743Y-30405989D01*
X47613919Y-30460352D01*
X47613917Y-30460354D01*
X47613916Y-30460354D01*
X47491435Y-30582835D01*
X47491435Y-30582836D01*
X47491433Y-30582838D01*
X47466406Y-30617285D01*
X47389615Y-30722977D01*
X47310975Y-30877318D01*
X47257444Y-31042068D01*
X47244763Y-31122135D01*
X47230347Y-31213155D01*
X47230347Y-31386377D01*
X47238524Y-31438005D01*
X47257444Y-31557463D01*
X47257444Y-31557465D01*
X47257445Y-31557467D01*
X47308523Y-31714669D01*
X47310975Y-31722213D01*
X47389615Y-31876554D01*
X47491433Y-32016694D01*
X47613919Y-32139180D01*
X47754059Y-32240998D01*
X47908402Y-32319639D01*
X48073146Y-32373168D01*
X48244236Y-32400266D01*
X48244237Y-32400266D01*
X48417457Y-32400266D01*
X48417458Y-32400266D01*
X48588548Y-32373168D01*
X48630102Y-32359665D01*
X48699940Y-32357670D01*
X48759773Y-32393750D01*
X48790602Y-32456451D01*
X48782638Y-32525865D01*
X48756100Y-32565277D01*
X48639086Y-32682291D01*
X48577766Y-32715775D01*
X48551407Y-32718609D01*
X42980601Y-32718609D01*
X42913562Y-32698924D01*
X42867807Y-32646120D01*
X42857863Y-32576962D01*
X42886888Y-32513406D01*
X42892905Y-32506942D01*
X42977422Y-32422425D01*
X43038741Y-32388943D01*
X43084494Y-32387636D01*
X43164236Y-32400266D01*
X43164238Y-32400266D01*
X43337457Y-32400266D01*
X43337458Y-32400266D01*
X43508548Y-32373168D01*
X43673292Y-32319639D01*
X43827635Y-32240998D01*
X43967775Y-32139180D01*
X44090261Y-32016694D01*
X44192079Y-31876554D01*
X44270720Y-31722211D01*
X44324249Y-31557467D01*
X44351347Y-31386377D01*
X44351347Y-31213155D01*
X44690347Y-31213155D01*
X44690347Y-31386377D01*
X44698524Y-31438005D01*
X44717444Y-31557463D01*
X44717444Y-31557465D01*
X44717445Y-31557467D01*
X44768523Y-31714669D01*
X44770975Y-31722213D01*
X44849615Y-31876554D01*
X44951433Y-32016694D01*
X45073919Y-32139180D01*
X45214059Y-32240998D01*
X45368402Y-32319639D01*
X45533146Y-32373168D01*
X45704236Y-32400266D01*
X45704237Y-32400266D01*
X45877457Y-32400266D01*
X45877458Y-32400266D01*
X46048548Y-32373168D01*
X46213292Y-32319639D01*
X46367635Y-32240998D01*
X46507775Y-32139180D01*
X46630261Y-32016694D01*
X46732079Y-31876554D01*
X46810720Y-31722211D01*
X46864249Y-31557467D01*
X46891347Y-31386377D01*
X46891347Y-31213155D01*
X46864249Y-31042065D01*
X46810720Y-30877321D01*
X46732079Y-30722978D01*
X46630261Y-30582838D01*
X46507775Y-30460352D01*
X46367635Y-30358534D01*
X46213292Y-30279893D01*
X46048548Y-30226364D01*
X46048546Y-30226363D01*
X46048545Y-30226363D01*
X45917118Y-30205547D01*
X45877458Y-30199266D01*
X45704236Y-30199266D01*
X45664575Y-30205547D01*
X45533149Y-30226363D01*
X45368399Y-30279894D01*
X45214058Y-30358534D01*
X45148743Y-30405989D01*
X45073919Y-30460352D01*
X45073917Y-30460354D01*
X45073916Y-30460354D01*
X44951435Y-30582835D01*
X44951435Y-30582836D01*
X44951433Y-30582838D01*
X44926406Y-30617285D01*
X44849615Y-30722977D01*
X44770975Y-30877318D01*
X44717444Y-31042068D01*
X44704763Y-31122135D01*
X44690347Y-31213155D01*
X44351347Y-31213155D01*
X44324249Y-31042065D01*
X44270720Y-30877321D01*
X44192079Y-30722978D01*
X44090261Y-30582838D01*
X43967775Y-30460352D01*
X43827635Y-30358534D01*
X43673292Y-30279893D01*
X43508548Y-30226364D01*
X43508546Y-30226363D01*
X43508545Y-30226363D01*
X43377118Y-30205547D01*
X43337458Y-30199266D01*
X43164236Y-30199266D01*
X43124575Y-30205547D01*
X42993149Y-30226363D01*
X42828399Y-30279894D01*
X42674058Y-30358534D01*
X42608743Y-30405989D01*
X42533919Y-30460352D01*
X42533917Y-30460354D01*
X42533916Y-30460354D01*
X42411435Y-30582835D01*
X42411435Y-30582836D01*
X42411433Y-30582838D01*
X42386406Y-30617285D01*
X42309615Y-30722977D01*
X42230975Y-30877318D01*
X42177444Y-31042068D01*
X42150347Y-31213155D01*
X42150347Y-31386381D01*
X42162975Y-31466113D01*
X42154020Y-31535407D01*
X42128183Y-31573192D01*
X33872557Y-39828820D01*
X33760752Y-39940624D01*
X33760750Y-39940626D01*
X33750125Y-39959031D01*
X33726498Y-39999955D01*
X33709792Y-40028890D01*
X33681694Y-40077556D01*
X33670099Y-40120831D01*
X33640770Y-40230285D01*
X33640770Y-40230287D01*
X33640770Y-40398388D01*
X33640771Y-40398401D01*
X33640771Y-44132439D01*
X33640770Y-44132457D01*
X33640770Y-44298163D01*
X33640769Y-44298163D01*
X33681694Y-44450894D01*
X33710629Y-44501009D01*
X33710630Y-44501013D01*
X33710631Y-44501013D01*
X33759264Y-44585250D01*
X33760750Y-44587823D01*
X33760752Y-44587826D01*
X33879620Y-44706694D01*
X33879626Y-44706699D01*
X37079030Y-47906103D01*
X37112515Y-47967426D01*
X37113822Y-48013180D01*
X37101194Y-48092921D01*
X37101194Y-48266143D01*
X37128292Y-48437233D01*
X37181821Y-48601977D01*
X37260462Y-48756320D01*
X37362280Y-48896460D01*
X37484766Y-49018946D01*
X37624906Y-49120764D01*
X37779249Y-49199405D01*
X37943993Y-49252934D01*
X38115083Y-49280032D01*
X38115084Y-49280032D01*
X38288304Y-49280032D01*
X38288305Y-49280032D01*
X38459395Y-49252934D01*
X38624139Y-49199405D01*
X38778482Y-49120764D01*
X38918622Y-49018946D01*
X39041108Y-48896460D01*
X39142926Y-48756320D01*
X39221567Y-48601977D01*
X39275096Y-48437233D01*
X39302194Y-48266143D01*
X39302194Y-48092921D01*
X39275096Y-47921831D01*
X39221567Y-47757087D01*
X39142926Y-47602744D01*
X39041108Y-47462604D01*
X38918622Y-47340118D01*
X38778482Y-47238300D01*
X38624139Y-47159659D01*
X38459395Y-47106130D01*
X38459393Y-47106129D01*
X38459392Y-47106129D01*
X38311495Y-47082705D01*
X38288305Y-47079032D01*
X38115083Y-47079032D01*
X38035343Y-47091661D01*
X38029916Y-47090959D01*
X38024792Y-47092871D01*
X37995642Y-47086529D01*
X37966049Y-47082705D01*
X37960445Y-47078873D01*
X37956519Y-47078019D01*
X37928265Y-47056868D01*
X37791811Y-46920414D01*
X37758326Y-46859091D01*
X37763310Y-46789399D01*
X37805182Y-46733466D01*
X37870646Y-46709049D01*
X37917804Y-46714801D01*
X37970903Y-46732054D01*
X38141993Y-46759152D01*
X38141994Y-46759152D01*
X38315214Y-46759152D01*
X38315215Y-46759152D01*
X38486305Y-46732054D01*
X38651049Y-46678525D01*
X38805392Y-46599884D01*
X38945532Y-46498066D01*
X39068018Y-46375580D01*
X39169836Y-46235440D01*
X39248477Y-46081097D01*
X39302006Y-45916353D01*
X39329104Y-45745263D01*
X39329104Y-45572041D01*
X39302006Y-45400951D01*
X39248477Y-45236207D01*
X39169836Y-45081864D01*
X39068018Y-44941724D01*
X38945532Y-44819238D01*
X38805392Y-44717420D01*
X38773223Y-44701029D01*
X45846347Y-44701029D01*
X45846347Y-44898502D01*
X45877236Y-45093529D01*
X45925996Y-45243594D01*
X45938256Y-45281327D01*
X45999210Y-45400954D01*
X46027905Y-45457270D01*
X46143962Y-45617012D01*
X46283600Y-45756650D01*
X46433081Y-45865252D01*
X46443346Y-45872710D01*
X46619286Y-45962357D01*
X46744484Y-46003036D01*
X46807083Y-46023376D01*
X47002111Y-46054266D01*
X47002116Y-46054266D01*
X47199583Y-46054266D01*
X47394610Y-46023376D01*
X47582408Y-45962357D01*
X47758348Y-45872710D01*
X47869881Y-45791677D01*
X47918093Y-45756650D01*
X47918095Y-45756647D01*
X47918099Y-45756645D01*
X48057726Y-45617018D01*
X48057728Y-45617014D01*
X48057731Y-45617012D01*
X48108626Y-45546958D01*
X48173791Y-45457267D01*
X48263438Y-45281327D01*
X48324457Y-45093529D01*
X48348501Y-44941722D01*
X48355347Y-44898502D01*
X48355347Y-44701029D01*
X48324457Y-44506002D01*
X48304117Y-44443403D01*
X48263438Y-44318205D01*
X48173791Y-44142265D01*
X48115072Y-44061444D01*
X48057731Y-43982519D01*
X47918093Y-43842881D01*
X47758351Y-43726824D01*
X47758350Y-43726823D01*
X47758348Y-43726822D01*
X47582408Y-43637175D01*
X47582405Y-43637174D01*
X47394610Y-43576155D01*
X47199583Y-43545266D01*
X47199578Y-43545266D01*
X47002116Y-43545266D01*
X47002111Y-43545266D01*
X46807083Y-43576155D01*
X46619288Y-43637174D01*
X46443342Y-43726824D01*
X46283600Y-43842881D01*
X46143962Y-43982519D01*
X46027905Y-44142261D01*
X45938255Y-44318207D01*
X45877236Y-44506002D01*
X45846347Y-44701029D01*
X38773223Y-44701029D01*
X38651049Y-44638779D01*
X38486305Y-44585250D01*
X38486303Y-44585249D01*
X38486302Y-44585249D01*
X38354875Y-44564433D01*
X38315215Y-44558152D01*
X38141993Y-44558152D01*
X38102332Y-44564433D01*
X37970906Y-44585249D01*
X37806151Y-44638781D01*
X37802957Y-44640409D01*
X37734286Y-44653296D01*
X37669549Y-44627012D01*
X37658995Y-44617598D01*
X36218090Y-43176693D01*
X36203386Y-43149765D01*
X36186794Y-43123947D01*
X36185902Y-43117746D01*
X36184605Y-43115370D01*
X36181771Y-43089012D01*
X36181771Y-43012921D01*
X37101194Y-43012921D01*
X37101194Y-43186142D01*
X37120818Y-43310048D01*
X37128292Y-43357233D01*
X37181821Y-43521977D01*
X37260462Y-43676320D01*
X37362280Y-43816460D01*
X37484766Y-43938946D01*
X37624906Y-44040764D01*
X37779249Y-44119405D01*
X37943993Y-44172934D01*
X38115083Y-44200032D01*
X38115084Y-44200032D01*
X38288304Y-44200032D01*
X38288305Y-44200032D01*
X38459395Y-44172934D01*
X38624139Y-44119405D01*
X38778482Y-44040764D01*
X38918622Y-43938946D01*
X39041108Y-43816460D01*
X39142926Y-43676320D01*
X39221567Y-43521977D01*
X39275096Y-43357233D01*
X39302194Y-43186143D01*
X39302194Y-43012921D01*
X39275096Y-42841831D01*
X39221567Y-42677087D01*
X39142926Y-42522744D01*
X39041108Y-42382604D01*
X38918622Y-42260118D01*
X38778482Y-42158300D01*
X38624139Y-42079659D01*
X38459395Y-42026130D01*
X38459393Y-42026129D01*
X38459392Y-42026129D01*
X38327965Y-42005313D01*
X38288305Y-41999032D01*
X38115083Y-41999032D01*
X38075422Y-42005313D01*
X37943996Y-42026129D01*
X37779246Y-42079660D01*
X37624905Y-42158300D01*
X37544950Y-42216391D01*
X37484766Y-42260118D01*
X37484764Y-42260120D01*
X37484763Y-42260120D01*
X37362282Y-42382601D01*
X37362282Y-42382602D01*
X37362280Y-42382604D01*
X37318553Y-42442788D01*
X37260462Y-42522743D01*
X37181822Y-42677084D01*
X37128291Y-42841834D01*
X37101194Y-43012921D01*
X36181771Y-43012921D01*
X36181771Y-41019206D01*
X36201456Y-40952167D01*
X36218090Y-40931525D01*
X36509563Y-40640052D01*
X36911228Y-40238386D01*
X36972549Y-40204903D01*
X37042240Y-40209887D01*
X37098174Y-40251758D01*
X37122591Y-40317223D01*
X37121380Y-40345466D01*
X37101194Y-40472920D01*
X37101194Y-40646142D01*
X37125272Y-40798169D01*
X37128292Y-40817233D01*
X37181821Y-40981977D01*
X37260462Y-41136320D01*
X37362280Y-41276460D01*
X37484766Y-41398946D01*
X37624906Y-41500764D01*
X37779249Y-41579405D01*
X37943993Y-41632934D01*
X38115083Y-41660032D01*
X38115084Y-41660032D01*
X38288304Y-41660032D01*
X38288305Y-41660032D01*
X38459395Y-41632934D01*
X38624139Y-41579405D01*
X38778482Y-41500764D01*
X38918622Y-41398946D01*
X39041108Y-41276460D01*
X39088562Y-41211145D01*
X39143891Y-41168481D01*
X39188879Y-41160032D01*
X40996619Y-41160032D01*
X40996635Y-41160033D01*
X41004231Y-41160033D01*
X41162342Y-41160033D01*
X41162345Y-41160033D01*
X41315073Y-41119109D01*
X41400776Y-41069628D01*
X41452004Y-41040052D01*
X41563808Y-40928248D01*
X41563808Y-40928246D01*
X41574012Y-40918043D01*
X41574015Y-40918038D01*
X45676234Y-36815820D01*
X45737555Y-36782337D01*
X45807247Y-36787321D01*
X45863180Y-36829193D01*
X45887597Y-36894657D01*
X45881845Y-36941817D01*
X45877237Y-36955998D01*
X45877237Y-36955999D01*
X45846347Y-37151029D01*
X45846347Y-37348502D01*
X45877236Y-37543529D01*
X45938255Y-37731324D01*
X45938256Y-37731327D01*
X46027903Y-37907267D01*
X46027905Y-37907270D01*
X46143962Y-38067012D01*
X46283600Y-38206650D01*
X46433081Y-38315252D01*
X46443346Y-38322710D01*
X46619286Y-38412357D01*
X46744484Y-38453036D01*
X46807083Y-38473376D01*
X47002111Y-38504266D01*
X47002116Y-38504266D01*
X47199583Y-38504266D01*
X47394610Y-38473376D01*
X47582408Y-38412357D01*
X47758348Y-38322710D01*
X47848039Y-38257545D01*
X47918093Y-38206650D01*
X47918095Y-38206647D01*
X47918099Y-38206645D01*
X48057726Y-38067018D01*
X48057728Y-38067014D01*
X48057731Y-38067012D01*
X48108626Y-37996958D01*
X48173791Y-37907267D01*
X48263438Y-37731327D01*
X48324457Y-37543529D01*
X48355347Y-37348502D01*
X48355347Y-37151029D01*
X48324457Y-36956002D01*
X48283254Y-36829193D01*
X48263438Y-36768205D01*
X48173791Y-36592265D01*
X48166333Y-36582000D01*
X48057731Y-36432519D01*
X47918093Y-36292881D01*
X47758351Y-36176824D01*
X47758350Y-36176823D01*
X47758348Y-36176822D01*
X47582408Y-36087175D01*
X47582405Y-36087174D01*
X47394610Y-36026155D01*
X47199583Y-35995266D01*
X47199578Y-35995266D01*
X47002116Y-35995266D01*
X47002111Y-35995266D01*
X46807084Y-36026155D01*
X46792901Y-36030764D01*
X46723060Y-36032758D01*
X46663228Y-35996676D01*
X46632401Y-35933975D01*
X46640367Y-35864561D01*
X46666902Y-35825152D01*
X47826128Y-34665928D01*
X47887451Y-34632443D01*
X47913809Y-34629609D01*
X50984601Y-34629609D01*
X50984617Y-34629610D01*
X50992213Y-34629610D01*
X51150324Y-34629610D01*
X51150327Y-34629610D01*
X51303055Y-34588686D01*
X51314342Y-34582168D01*
X51382240Y-34565693D01*
X51448269Y-34588542D01*
X51491462Y-34643461D01*
X51500347Y-34689553D01*
X51500347Y-36072448D01*
X51480662Y-36139487D01*
X51446522Y-36172905D01*
X51447287Y-36173958D01*
X51283600Y-36292881D01*
X51143962Y-36432519D01*
X51027905Y-36592261D01*
X50938255Y-36768207D01*
X50877236Y-36956002D01*
X50846347Y-37151029D01*
X50846347Y-37348502D01*
X50877236Y-37543529D01*
X50938255Y-37731324D01*
X50938256Y-37731327D01*
X51027903Y-37907267D01*
X51027905Y-37907270D01*
X51143962Y-38067012D01*
X51143968Y-38067018D01*
X51283595Y-38206645D01*
X51443346Y-38322710D01*
X51443350Y-38322712D01*
X51447288Y-38325573D01*
X51446246Y-38327007D01*
X51488006Y-38373156D01*
X51500347Y-38427083D01*
X51500347Y-43622448D01*
X51480662Y-43689487D01*
X51446522Y-43722905D01*
X51447287Y-43723958D01*
X51283600Y-43842881D01*
X51143962Y-43982519D01*
X51027905Y-44142261D01*
X50938255Y-44318207D01*
X50877236Y-44506002D01*
X50846347Y-44701029D01*
X50846347Y-44898502D01*
X50877236Y-45093529D01*
X50925996Y-45243594D01*
X50938256Y-45281327D01*
X50999210Y-45400954D01*
X51027905Y-45457270D01*
X51143962Y-45617012D01*
X51143968Y-45617018D01*
X51283595Y-45756645D01*
X51443346Y-45872710D01*
X51443350Y-45872712D01*
X51447288Y-45875573D01*
X51446246Y-45877007D01*
X51488006Y-45923156D01*
X51500347Y-45977083D01*
X51500347Y-51172448D01*
X51480662Y-51239487D01*
X51446522Y-51272905D01*
X51447287Y-51273958D01*
X51283600Y-51392881D01*
X51143962Y-51532519D01*
X51027905Y-51692261D01*
X50938255Y-51868207D01*
X50877236Y-52056002D01*
X50846347Y-52251029D01*
X50846347Y-52448502D01*
X50877999Y-52648341D01*
X50876254Y-52648617D01*
X50873137Y-52710804D01*
X50843739Y-52757637D01*
X45898665Y-57702713D01*
X45837342Y-57736198D01*
X45810984Y-57739032D01*
X36648879Y-57739032D01*
X36581840Y-57719347D01*
X36548561Y-57687918D01*
X36501108Y-57622604D01*
X36378622Y-57500118D01*
X36238482Y-57398300D01*
X36084139Y-57319659D01*
X35919395Y-57266130D01*
X35919393Y-57266129D01*
X35919392Y-57266129D01*
X35787965Y-57245313D01*
X35748305Y-57239032D01*
X35575083Y-57239032D01*
X35535422Y-57245313D01*
X35403996Y-57266129D01*
X35239246Y-57319660D01*
X35084905Y-57398300D01*
X35004950Y-57456391D01*
X34944766Y-57500118D01*
X34944764Y-57500120D01*
X34944763Y-57500120D01*
X34822282Y-57622601D01*
X34822282Y-57622602D01*
X34822280Y-57622604D01*
X34778553Y-57682788D01*
X34720462Y-57762743D01*
X34641822Y-57917084D01*
X34588291Y-58081834D01*
X34561194Y-58252921D01*
X34561194Y-58317460D01*
X34541509Y-58384499D01*
X34488705Y-58430254D01*
X34419547Y-58440198D01*
X34355991Y-58411173D01*
X34345772Y-58401233D01*
X34157694Y-58195982D01*
X34150740Y-58187695D01*
X33918375Y-57884870D01*
X33912170Y-57876009D01*
X33707076Y-57554075D01*
X33701668Y-57544707D01*
X33525416Y-57206132D01*
X33520850Y-57196339D01*
X33374769Y-56843667D01*
X33371083Y-56833539D01*
X33256295Y-56469476D01*
X33253502Y-56459056D01*
X33170877Y-56086356D01*
X33169006Y-56075741D01*
X33119180Y-55697273D01*
X33118240Y-55686537D01*
X33101464Y-55302300D01*
X33101347Y-55296907D01*
X33101347Y-52251029D01*
X45846347Y-52251029D01*
X45846347Y-52448502D01*
X45877236Y-52643529D01*
X45924452Y-52788844D01*
X45938256Y-52831327D01*
X46025135Y-53001834D01*
X46027905Y-53007270D01*
X46143962Y-53167012D01*
X46283600Y-53306650D01*
X46433081Y-53415252D01*
X46443346Y-53422710D01*
X46619286Y-53512357D01*
X46744484Y-53553036D01*
X46807083Y-53573376D01*
X47002111Y-53604266D01*
X47002116Y-53604266D01*
X47199583Y-53604266D01*
X47394610Y-53573376D01*
X47396955Y-53572614D01*
X47582408Y-53512357D01*
X47758348Y-53422710D01*
X47863736Y-53346142D01*
X47918093Y-53306650D01*
X47918095Y-53306647D01*
X47918099Y-53306645D01*
X48057726Y-53167018D01*
X48057728Y-53167014D01*
X48057731Y-53167012D01*
X48109931Y-53095164D01*
X48173791Y-53007267D01*
X48263438Y-52831327D01*
X48324457Y-52643529D01*
X48340442Y-52542604D01*
X48355347Y-52448502D01*
X48355347Y-52251029D01*
X48324457Y-52056002D01*
X48286852Y-51940267D01*
X48263438Y-51868205D01*
X48173791Y-51692265D01*
X48166333Y-51682000D01*
X48057731Y-51532519D01*
X47918093Y-51392881D01*
X47758351Y-51276824D01*
X47758350Y-51276823D01*
X47758348Y-51276822D01*
X47582408Y-51187175D01*
X47574280Y-51184534D01*
X47394610Y-51126155D01*
X47199583Y-51095266D01*
X47199578Y-51095266D01*
X47002116Y-51095266D01*
X47002111Y-51095266D01*
X46807083Y-51126155D01*
X46619288Y-51187174D01*
X46443342Y-51276824D01*
X46283600Y-51392881D01*
X46143962Y-51532519D01*
X46027905Y-51692261D01*
X45938255Y-51868207D01*
X45877236Y-52056002D01*
X45846347Y-52251029D01*
X33101347Y-52251029D01*
X33101347Y-36554961D01*
X33121032Y-36487922D01*
X33173836Y-36442167D01*
X33242994Y-36432223D01*
X33306550Y-36461248D01*
X33313028Y-36467280D01*
X33338633Y-36492885D01*
X33475415Y-36592261D01*
X33504237Y-36613201D01*
X33620454Y-36672417D01*
X33686623Y-36706132D01*
X33686625Y-36706132D01*
X33686628Y-36706134D01*
X33790984Y-36740041D01*
X33881312Y-36769391D01*
X33982404Y-36785402D01*
X34083495Y-36801414D01*
X34083496Y-36801414D01*
X34288198Y-36801414D01*
X34288199Y-36801414D01*
X34490381Y-36769391D01*
X34685066Y-36706134D01*
X34867457Y-36613201D01*
X34960437Y-36545646D01*
X35033060Y-36492885D01*
X35033062Y-36492882D01*
X35033066Y-36492880D01*
X35177813Y-36348133D01*
X35177815Y-36348129D01*
X35177818Y-36348127D01*
X35230579Y-36275504D01*
X35298134Y-36182524D01*
X35391067Y-36000133D01*
X35454324Y-35805448D01*
X35486347Y-35603266D01*
X35486347Y-35398562D01*
X35454324Y-35196380D01*
X35450125Y-35183458D01*
X35413019Y-35069257D01*
X35391067Y-35001695D01*
X35391065Y-35001692D01*
X35391065Y-35001690D01*
X35344339Y-34909987D01*
X35298134Y-34819304D01*
X35270347Y-34781058D01*
X35177818Y-34653700D01*
X35033060Y-34508942D01*
X34867460Y-34388629D01*
X34867459Y-34388628D01*
X34867457Y-34388627D01*
X34810500Y-34359605D01*
X34685070Y-34295695D01*
X34490381Y-34232436D01*
X34315842Y-34204792D01*
X34288199Y-34200414D01*
X34083495Y-34200414D01*
X34059176Y-34204265D01*
X33881312Y-34232436D01*
X33686623Y-34295695D01*
X33504233Y-34388629D01*
X33338633Y-34508942D01*
X33338629Y-34508946D01*
X33313028Y-34534548D01*
X33293591Y-34545160D01*
X33276858Y-34559661D01*
X33263526Y-34561577D01*
X33251705Y-34568033D01*
X33229618Y-34566453D01*
X33207700Y-34569605D01*
X33195448Y-34564009D01*
X33182013Y-34563049D01*
X33164286Y-34549778D01*
X33144144Y-34540580D01*
X33136861Y-34529248D01*
X33126080Y-34521177D01*
X33118342Y-34500431D01*
X33106370Y-34481802D01*
X33103218Y-34459883D01*
X33101663Y-34455713D01*
X33101347Y-34446867D01*
X33101347Y-34302472D01*
X33101465Y-34297063D01*
X33104224Y-34233874D01*
X33118233Y-33912992D01*
X33119172Y-33902263D01*
X33168999Y-33523796D01*
X33170872Y-33513169D01*
X33253496Y-33140480D01*
X33256294Y-33130042D01*
X33371077Y-32765994D01*
X33374765Y-32755862D01*
X33520851Y-32403179D01*
X33525409Y-32393405D01*
X33701681Y-32054791D01*
X33707063Y-32045470D01*
X33912168Y-31723520D01*
X33918359Y-31714677D01*
X34150744Y-31411828D01*
X34157682Y-31403559D01*
X34415574Y-31122120D01*
X34423200Y-31114494D01*
X34704642Y-30856601D01*
X34712908Y-30849664D01*
X35015758Y-30617278D01*
X35024601Y-30611087D01*
X35346551Y-30405982D01*
X35355872Y-30400600D01*
X35694486Y-30224329D01*
X35704260Y-30219771D01*
X36056945Y-30073684D01*
X36067066Y-30070000D01*
X36431152Y-29955204D01*
X36441552Y-29952417D01*
X36814253Y-29869792D01*
X36824873Y-29867919D01*
X37203342Y-29818093D01*
X37214073Y-29817153D01*
X37598175Y-29800383D01*
X37603568Y-29800266D01*
X37666739Y-29800266D01*
X61534955Y-29800266D01*
X61598141Y-29800266D01*
X61603549Y-29800383D01*
G37*
%TD.AperFunction*%
%TD*%
M02*
