%TF.GenerationSoftware,KiCad,Pcbnew,9.0.1*%
%TF.CreationDate,2025-06-15T21:57:09+03:00*%
%TF.ProjectId,mp3_player,6d70335f-706c-4617-9965-722e6b696361,rev?*%
%TF.SameCoordinates,Original*%
%TF.FileFunction,Legend,Top*%
%TF.FilePolarity,Positive*%
%FSLAX46Y46*%
G04 Gerber Fmt 4.6, Leading zero omitted, Abs format (unit mm)*
G04 Created by KiCad (PCBNEW 9.0.1) date 2025-06-15 21:57:09*
%MOMM*%
%LPD*%
G01*
G04 APERTURE LIST*
%ADD10C,0.300000*%
%ADD11C,0.187500*%
%ADD12C,0.150000*%
%ADD13C,0.127000*%
%ADD14C,0.200000*%
%ADD15C,0.120000*%
G04 APERTURE END LIST*
D10*
X46841919Y-59478094D02*
X47029419Y-57978094D01*
X46957990Y-58549523D02*
X47109776Y-58478094D01*
X47109776Y-58478094D02*
X47395490Y-58478094D01*
X47395490Y-58478094D02*
X47529419Y-58549523D01*
X47529419Y-58549523D02*
X47591919Y-58620951D01*
X47591919Y-58620951D02*
X47645490Y-58763808D01*
X47645490Y-58763808D02*
X47591919Y-59192380D01*
X47591919Y-59192380D02*
X47502633Y-59335237D01*
X47502633Y-59335237D02*
X47422276Y-59406666D01*
X47422276Y-59406666D02*
X47270490Y-59478094D01*
X47270490Y-59478094D02*
X46984776Y-59478094D01*
X46984776Y-59478094D02*
X46850847Y-59406666D01*
X48181205Y-58478094D02*
X48413348Y-59478094D01*
X48895490Y-58478094D02*
X48413348Y-59478094D01*
X48413348Y-59478094D02*
X48225848Y-59835237D01*
X48225848Y-59835237D02*
X48145490Y-59906666D01*
X48145490Y-59906666D02*
X47993705Y-59978094D01*
X50422276Y-59406666D02*
X50627633Y-59478094D01*
X50627633Y-59478094D02*
X50984776Y-59478094D01*
X50984776Y-59478094D02*
X51136562Y-59406666D01*
X51136562Y-59406666D02*
X51216919Y-59335237D01*
X51216919Y-59335237D02*
X51306204Y-59192380D01*
X51306204Y-59192380D02*
X51324062Y-59049523D01*
X51324062Y-59049523D02*
X51270490Y-58906666D01*
X51270490Y-58906666D02*
X51207990Y-58835237D01*
X51207990Y-58835237D02*
X51074062Y-58763808D01*
X51074062Y-58763808D02*
X50797276Y-58692380D01*
X50797276Y-58692380D02*
X50663347Y-58620951D01*
X50663347Y-58620951D02*
X50600847Y-58549523D01*
X50600847Y-58549523D02*
X50547276Y-58406666D01*
X50547276Y-58406666D02*
X50565133Y-58263808D01*
X50565133Y-58263808D02*
X50654419Y-58120951D01*
X50654419Y-58120951D02*
X50734776Y-58049523D01*
X50734776Y-58049523D02*
X50886562Y-57978094D01*
X50886562Y-57978094D02*
X51243704Y-57978094D01*
X51243704Y-57978094D02*
X51449062Y-58049523D01*
X51886561Y-57978094D02*
X52743704Y-57978094D01*
X52127633Y-59478094D02*
X52315133Y-57978094D01*
D11*
X38820742Y-31852401D02*
X38820742Y-30852401D01*
X38820742Y-30852401D02*
X39154075Y-31566686D01*
X39154075Y-31566686D02*
X39487408Y-30852401D01*
X39487408Y-30852401D02*
X39487408Y-31852401D01*
X39963599Y-31471448D02*
X40725504Y-31471448D01*
X41058837Y-30852401D02*
X41392170Y-31852401D01*
X41392170Y-31852401D02*
X41725503Y-30852401D01*
D12*
X53767514Y-52756966D02*
X53910371Y-52804585D01*
X53910371Y-52804585D02*
X54148466Y-52804585D01*
X54148466Y-52804585D02*
X54243704Y-52756966D01*
X54243704Y-52756966D02*
X54291323Y-52709346D01*
X54291323Y-52709346D02*
X54338942Y-52614108D01*
X54338942Y-52614108D02*
X54338942Y-52518870D01*
X54338942Y-52518870D02*
X54291323Y-52423632D01*
X54291323Y-52423632D02*
X54243704Y-52376013D01*
X54243704Y-52376013D02*
X54148466Y-52328394D01*
X54148466Y-52328394D02*
X53957990Y-52280775D01*
X53957990Y-52280775D02*
X53862752Y-52233156D01*
X53862752Y-52233156D02*
X53815133Y-52185537D01*
X53815133Y-52185537D02*
X53767514Y-52090299D01*
X53767514Y-52090299D02*
X53767514Y-51995061D01*
X53767514Y-51995061D02*
X53815133Y-51899823D01*
X53815133Y-51899823D02*
X53862752Y-51852204D01*
X53862752Y-51852204D02*
X53957990Y-51804585D01*
X53957990Y-51804585D02*
X54196085Y-51804585D01*
X54196085Y-51804585D02*
X54338942Y-51852204D01*
X54672276Y-51804585D02*
X54910371Y-52804585D01*
X54910371Y-52804585D02*
X55100847Y-52090299D01*
X55100847Y-52090299D02*
X55291323Y-52804585D01*
X55291323Y-52804585D02*
X55529419Y-51804585D01*
X55862752Y-51899823D02*
X55910371Y-51852204D01*
X55910371Y-51852204D02*
X56005609Y-51804585D01*
X56005609Y-51804585D02*
X56243704Y-51804585D01*
X56243704Y-51804585D02*
X56338942Y-51852204D01*
X56338942Y-51852204D02*
X56386561Y-51899823D01*
X56386561Y-51899823D02*
X56434180Y-51995061D01*
X56434180Y-51995061D02*
X56434180Y-52090299D01*
X56434180Y-52090299D02*
X56386561Y-52233156D01*
X56386561Y-52233156D02*
X55815133Y-52804585D01*
X55815133Y-52804585D02*
X56434180Y-52804585D01*
X53624657Y-54204585D02*
X53624657Y-53204585D01*
X54291323Y-53204585D02*
X54481799Y-53204585D01*
X54481799Y-53204585D02*
X54577037Y-53252204D01*
X54577037Y-53252204D02*
X54672275Y-53347442D01*
X54672275Y-53347442D02*
X54719894Y-53537918D01*
X54719894Y-53537918D02*
X54719894Y-53871251D01*
X54719894Y-53871251D02*
X54672275Y-54061727D01*
X54672275Y-54061727D02*
X54577037Y-54156966D01*
X54577037Y-54156966D02*
X54481799Y-54204585D01*
X54481799Y-54204585D02*
X54291323Y-54204585D01*
X54291323Y-54204585D02*
X54196085Y-54156966D01*
X54196085Y-54156966D02*
X54100847Y-54061727D01*
X54100847Y-54061727D02*
X54053228Y-53871251D01*
X54053228Y-53871251D02*
X54053228Y-53537918D01*
X54053228Y-53537918D02*
X54100847Y-53347442D01*
X54100847Y-53347442D02*
X54196085Y-53252204D01*
X54196085Y-53252204D02*
X54291323Y-53204585D01*
X55100847Y-53299823D02*
X55148466Y-53252204D01*
X55148466Y-53252204D02*
X55243704Y-53204585D01*
X55243704Y-53204585D02*
X55481799Y-53204585D01*
X55481799Y-53204585D02*
X55577037Y-53252204D01*
X55577037Y-53252204D02*
X55624656Y-53299823D01*
X55624656Y-53299823D02*
X55672275Y-53395061D01*
X55672275Y-53395061D02*
X55672275Y-53490299D01*
X55672275Y-53490299D02*
X55624656Y-53633156D01*
X55624656Y-53633156D02*
X55053228Y-54204585D01*
X55053228Y-54204585D02*
X55672275Y-54204585D01*
X56005609Y-53204585D02*
X56672275Y-53204585D01*
X56672275Y-53204585D02*
X56243704Y-54204585D01*
X53767514Y-37656966D02*
X53910371Y-37704585D01*
X53910371Y-37704585D02*
X54148466Y-37704585D01*
X54148466Y-37704585D02*
X54243704Y-37656966D01*
X54243704Y-37656966D02*
X54291323Y-37609346D01*
X54291323Y-37609346D02*
X54338942Y-37514108D01*
X54338942Y-37514108D02*
X54338942Y-37418870D01*
X54338942Y-37418870D02*
X54291323Y-37323632D01*
X54291323Y-37323632D02*
X54243704Y-37276013D01*
X54243704Y-37276013D02*
X54148466Y-37228394D01*
X54148466Y-37228394D02*
X53957990Y-37180775D01*
X53957990Y-37180775D02*
X53862752Y-37133156D01*
X53862752Y-37133156D02*
X53815133Y-37085537D01*
X53815133Y-37085537D02*
X53767514Y-36990299D01*
X53767514Y-36990299D02*
X53767514Y-36895061D01*
X53767514Y-36895061D02*
X53815133Y-36799823D01*
X53815133Y-36799823D02*
X53862752Y-36752204D01*
X53862752Y-36752204D02*
X53957990Y-36704585D01*
X53957990Y-36704585D02*
X54196085Y-36704585D01*
X54196085Y-36704585D02*
X54338942Y-36752204D01*
X54672276Y-36704585D02*
X54910371Y-37704585D01*
X54910371Y-37704585D02*
X55100847Y-36990299D01*
X55100847Y-36990299D02*
X55291323Y-37704585D01*
X55291323Y-37704585D02*
X55529419Y-36704585D01*
X55815133Y-36704585D02*
X56434180Y-36704585D01*
X56434180Y-36704585D02*
X56100847Y-37085537D01*
X56100847Y-37085537D02*
X56243704Y-37085537D01*
X56243704Y-37085537D02*
X56338942Y-37133156D01*
X56338942Y-37133156D02*
X56386561Y-37180775D01*
X56386561Y-37180775D02*
X56434180Y-37276013D01*
X56434180Y-37276013D02*
X56434180Y-37514108D01*
X56434180Y-37514108D02*
X56386561Y-37609346D01*
X56386561Y-37609346D02*
X56338942Y-37656966D01*
X56338942Y-37656966D02*
X56243704Y-37704585D01*
X56243704Y-37704585D02*
X55957990Y-37704585D01*
X55957990Y-37704585D02*
X55862752Y-37656966D01*
X55862752Y-37656966D02*
X55815133Y-37609346D01*
X53624657Y-39104585D02*
X53624657Y-38104585D01*
X54291323Y-38104585D02*
X54481799Y-38104585D01*
X54481799Y-38104585D02*
X54577037Y-38152204D01*
X54577037Y-38152204D02*
X54672275Y-38247442D01*
X54672275Y-38247442D02*
X54719894Y-38437918D01*
X54719894Y-38437918D02*
X54719894Y-38771251D01*
X54719894Y-38771251D02*
X54672275Y-38961727D01*
X54672275Y-38961727D02*
X54577037Y-39056966D01*
X54577037Y-39056966D02*
X54481799Y-39104585D01*
X54481799Y-39104585D02*
X54291323Y-39104585D01*
X54291323Y-39104585D02*
X54196085Y-39056966D01*
X54196085Y-39056966D02*
X54100847Y-38961727D01*
X54100847Y-38961727D02*
X54053228Y-38771251D01*
X54053228Y-38771251D02*
X54053228Y-38437918D01*
X54053228Y-38437918D02*
X54100847Y-38247442D01*
X54100847Y-38247442D02*
X54196085Y-38152204D01*
X54196085Y-38152204D02*
X54291323Y-38104585D01*
X55053228Y-38104585D02*
X55672275Y-38104585D01*
X55672275Y-38104585D02*
X55338942Y-38485537D01*
X55338942Y-38485537D02*
X55481799Y-38485537D01*
X55481799Y-38485537D02*
X55577037Y-38533156D01*
X55577037Y-38533156D02*
X55624656Y-38580775D01*
X55624656Y-38580775D02*
X55672275Y-38676013D01*
X55672275Y-38676013D02*
X55672275Y-38914108D01*
X55672275Y-38914108D02*
X55624656Y-39009346D01*
X55624656Y-39009346D02*
X55577037Y-39056966D01*
X55577037Y-39056966D02*
X55481799Y-39104585D01*
X55481799Y-39104585D02*
X55196085Y-39104585D01*
X55196085Y-39104585D02*
X55100847Y-39056966D01*
X55100847Y-39056966D02*
X55053228Y-39009346D01*
X56053228Y-38199823D02*
X56100847Y-38152204D01*
X56100847Y-38152204D02*
X56196085Y-38104585D01*
X56196085Y-38104585D02*
X56434180Y-38104585D01*
X56434180Y-38104585D02*
X56529418Y-38152204D01*
X56529418Y-38152204D02*
X56577037Y-38199823D01*
X56577037Y-38199823D02*
X56624656Y-38295061D01*
X56624656Y-38295061D02*
X56624656Y-38390299D01*
X56624656Y-38390299D02*
X56577037Y-38533156D01*
X56577037Y-38533156D02*
X56005609Y-39104585D01*
X56005609Y-39104585D02*
X56624656Y-39104585D01*
X39099180Y-38325733D02*
X38765847Y-37849542D01*
X38527752Y-38325733D02*
X38527752Y-37325733D01*
X38527752Y-37325733D02*
X38908704Y-37325733D01*
X38908704Y-37325733D02*
X39003942Y-37373352D01*
X39003942Y-37373352D02*
X39051561Y-37420971D01*
X39051561Y-37420971D02*
X39099180Y-37516209D01*
X39099180Y-37516209D02*
X39099180Y-37659066D01*
X39099180Y-37659066D02*
X39051561Y-37754304D01*
X39051561Y-37754304D02*
X39003942Y-37801923D01*
X39003942Y-37801923D02*
X38908704Y-37849542D01*
X38908704Y-37849542D02*
X38527752Y-37849542D01*
X40051561Y-38325733D02*
X39480133Y-38325733D01*
X39765847Y-38325733D02*
X39765847Y-37325733D01*
X39765847Y-37325733D02*
X39670609Y-37468590D01*
X39670609Y-37468590D02*
X39575371Y-37563828D01*
X39575371Y-37563828D02*
X39480133Y-37611447D01*
X53767514Y-45206966D02*
X53910371Y-45254585D01*
X53910371Y-45254585D02*
X54148466Y-45254585D01*
X54148466Y-45254585D02*
X54243704Y-45206966D01*
X54243704Y-45206966D02*
X54291323Y-45159346D01*
X54291323Y-45159346D02*
X54338942Y-45064108D01*
X54338942Y-45064108D02*
X54338942Y-44968870D01*
X54338942Y-44968870D02*
X54291323Y-44873632D01*
X54291323Y-44873632D02*
X54243704Y-44826013D01*
X54243704Y-44826013D02*
X54148466Y-44778394D01*
X54148466Y-44778394D02*
X53957990Y-44730775D01*
X53957990Y-44730775D02*
X53862752Y-44683156D01*
X53862752Y-44683156D02*
X53815133Y-44635537D01*
X53815133Y-44635537D02*
X53767514Y-44540299D01*
X53767514Y-44540299D02*
X53767514Y-44445061D01*
X53767514Y-44445061D02*
X53815133Y-44349823D01*
X53815133Y-44349823D02*
X53862752Y-44302204D01*
X53862752Y-44302204D02*
X53957990Y-44254585D01*
X53957990Y-44254585D02*
X54196085Y-44254585D01*
X54196085Y-44254585D02*
X54338942Y-44302204D01*
X54672276Y-44254585D02*
X54910371Y-45254585D01*
X54910371Y-45254585D02*
X55100847Y-44540299D01*
X55100847Y-44540299D02*
X55291323Y-45254585D01*
X55291323Y-45254585D02*
X55529419Y-44254585D01*
X56434180Y-45254585D02*
X55862752Y-45254585D01*
X56148466Y-45254585D02*
X56148466Y-44254585D01*
X56148466Y-44254585D02*
X56053228Y-44397442D01*
X56053228Y-44397442D02*
X55957990Y-44492680D01*
X55957990Y-44492680D02*
X55862752Y-44540299D01*
X53624657Y-46654585D02*
X53624657Y-45654585D01*
X54291323Y-45654585D02*
X54481799Y-45654585D01*
X54481799Y-45654585D02*
X54577037Y-45702204D01*
X54577037Y-45702204D02*
X54672275Y-45797442D01*
X54672275Y-45797442D02*
X54719894Y-45987918D01*
X54719894Y-45987918D02*
X54719894Y-46321251D01*
X54719894Y-46321251D02*
X54672275Y-46511727D01*
X54672275Y-46511727D02*
X54577037Y-46606966D01*
X54577037Y-46606966D02*
X54481799Y-46654585D01*
X54481799Y-46654585D02*
X54291323Y-46654585D01*
X54291323Y-46654585D02*
X54196085Y-46606966D01*
X54196085Y-46606966D02*
X54100847Y-46511727D01*
X54100847Y-46511727D02*
X54053228Y-46321251D01*
X54053228Y-46321251D02*
X54053228Y-45987918D01*
X54053228Y-45987918D02*
X54100847Y-45797442D01*
X54100847Y-45797442D02*
X54196085Y-45702204D01*
X54196085Y-45702204D02*
X54291323Y-45654585D01*
X55100847Y-45749823D02*
X55148466Y-45702204D01*
X55148466Y-45702204D02*
X55243704Y-45654585D01*
X55243704Y-45654585D02*
X55481799Y-45654585D01*
X55481799Y-45654585D02*
X55577037Y-45702204D01*
X55577037Y-45702204D02*
X55624656Y-45749823D01*
X55624656Y-45749823D02*
X55672275Y-45845061D01*
X55672275Y-45845061D02*
X55672275Y-45940299D01*
X55672275Y-45940299D02*
X55624656Y-46083156D01*
X55624656Y-46083156D02*
X55053228Y-46654585D01*
X55053228Y-46654585D02*
X55672275Y-46654585D01*
X56577037Y-45654585D02*
X56100847Y-45654585D01*
X56100847Y-45654585D02*
X56053228Y-46130775D01*
X56053228Y-46130775D02*
X56100847Y-46083156D01*
X56100847Y-46083156D02*
X56196085Y-46035537D01*
X56196085Y-46035537D02*
X56434180Y-46035537D01*
X56434180Y-46035537D02*
X56529418Y-46083156D01*
X56529418Y-46083156D02*
X56577037Y-46130775D01*
X56577037Y-46130775D02*
X56624656Y-46226013D01*
X56624656Y-46226013D02*
X56624656Y-46464108D01*
X56624656Y-46464108D02*
X56577037Y-46559346D01*
X56577037Y-46559346D02*
X56529418Y-46606966D01*
X56529418Y-46606966D02*
X56434180Y-46654585D01*
X56434180Y-46654585D02*
X56196085Y-46654585D01*
X56196085Y-46654585D02*
X56100847Y-46606966D01*
X56100847Y-46606966D02*
X56053228Y-46559346D01*
X60132752Y-32294585D02*
X60132752Y-31294585D01*
X60132752Y-31294585D02*
X60370847Y-31294585D01*
X60370847Y-31294585D02*
X60513704Y-31342204D01*
X60513704Y-31342204D02*
X60608942Y-31437442D01*
X60608942Y-31437442D02*
X60656561Y-31532680D01*
X60656561Y-31532680D02*
X60704180Y-31723156D01*
X60704180Y-31723156D02*
X60704180Y-31866013D01*
X60704180Y-31866013D02*
X60656561Y-32056489D01*
X60656561Y-32056489D02*
X60608942Y-32151727D01*
X60608942Y-32151727D02*
X60513704Y-32246966D01*
X60513704Y-32246966D02*
X60370847Y-32294585D01*
X60370847Y-32294585D02*
X60132752Y-32294585D01*
X61656561Y-32294585D02*
X61085133Y-32294585D01*
X61370847Y-32294585D02*
X61370847Y-31294585D01*
X61370847Y-31294585D02*
X61275609Y-31437442D01*
X61275609Y-31437442D02*
X61180371Y-31532680D01*
X61180371Y-31532680D02*
X61085133Y-31580299D01*
D13*
%TO.C,SW2*%
X46600847Y-49349766D02*
X52600847Y-49349766D01*
X46600847Y-51274766D02*
X46600847Y-49349766D01*
X46600847Y-55349766D02*
X46600847Y-53424766D01*
X52600847Y-49349766D02*
X52600847Y-51274766D01*
X52600847Y-53424766D02*
X52600847Y-55349766D01*
X52600847Y-55349766D02*
X46600847Y-55349766D01*
D14*
X45900847Y-52349766D02*
G75*
G02*
X45700847Y-52349766I-100000J0D01*
G01*
X45700847Y-52349766D02*
G75*
G02*
X45900847Y-52349766I100000J0D01*
G01*
D13*
%TO.C,SW3*%
X46600847Y-34249766D02*
X52600847Y-34249766D01*
X46600847Y-36174766D02*
X46600847Y-34249766D01*
X46600847Y-40249766D02*
X46600847Y-38324766D01*
X52600847Y-34249766D02*
X52600847Y-36174766D01*
X52600847Y-38324766D02*
X52600847Y-40249766D01*
X52600847Y-40249766D02*
X46600847Y-40249766D01*
D14*
X45900847Y-37249766D02*
G75*
G02*
X45700847Y-37249766I-100000J0D01*
G01*
X45700847Y-37249766D02*
G75*
G02*
X45900847Y-37249766I100000J0D01*
G01*
D15*
%TO.C,R1*%
X35225847Y-35500914D02*
X35995847Y-35500914D01*
X35995847Y-34130914D02*
X35995847Y-36870914D01*
X35995847Y-36870914D02*
X42535847Y-36870914D01*
X42535847Y-34130914D02*
X35995847Y-34130914D01*
X42535847Y-36870914D02*
X42535847Y-34130914D01*
X43305847Y-35500914D02*
X42535847Y-35500914D01*
D13*
%TO.C,SW1*%
X46600847Y-41799766D02*
X52600847Y-41799766D01*
X46600847Y-43724766D02*
X46600847Y-41799766D01*
X46600847Y-47799766D02*
X46600847Y-45874766D01*
X52600847Y-41799766D02*
X52600847Y-43724766D01*
X52600847Y-45874766D02*
X52600847Y-47799766D01*
X52600847Y-47799766D02*
X46600847Y-47799766D01*
D14*
X45900847Y-44799766D02*
G75*
G02*
X45700847Y-44799766I-100000J0D01*
G01*
X45700847Y-44799766D02*
G75*
G02*
X45900847Y-44799766I100000J0D01*
G01*
D15*
%TO.C,D1*%
X59310847Y-33563766D02*
X59310847Y-33719766D01*
X59310847Y-35879766D02*
X59310847Y-36035766D01*
X59310847Y-33564250D02*
G75*
G02*
X62542244Y-33719705I1560000J-1235516D01*
G01*
X59829886Y-33719766D02*
G75*
G02*
X61911757Y-33719717I1040961J-1080000D01*
G01*
X61911757Y-35879815D02*
G75*
G02*
X59829886Y-35879766I-1040910J1080049D01*
G01*
X62542244Y-35879827D02*
G75*
G02*
X59310847Y-36035282I-1671397J1080061D01*
G01*
%TO.C,U1*%
X42150847Y-30199766D02*
X57050847Y-30199766D01*
X42150847Y-32399766D02*
X42150847Y-30199766D01*
X57050847Y-30199766D02*
X57050847Y-32399766D01*
X57050847Y-32399766D02*
X42150847Y-32399766D01*
%TD*%
M02*
